<svg id="Layer_3" enable-background="new 0 0 64 64" height="512" viewBox="0 0 64 64" width="512" xmlns="http://www.w3.org/2000/svg"><path d="m20 10 8-8h8l8 8z" fill="#98775a"/><path d="m28 2-8 8h21l-8-8z" fill="#cb9e78"/><path d="m44 22h10l6 6h-16z" fill="#8b8a8b"/><path d="m20 22h-10l-6 6h16z" fill="#8b8a8b"/><path d="m10 22-6 6h13v-6z" fill="#bab8b9"/><path d="m44 22v6h13l-6-6z" fill="#bab8b9"/><path d="m20 14h24v20h-24z" fill="#98775a"/><path d="m20 14h21v20h-21z" fill="#cb9e78"/><path d="m4 28h16v24h-16z" fill="#98775a"/><path d="m4 28h13v24h-13z" fill="#cb9e78"/><path d="m44 28h16v24h-16z" fill="#98775a"/><path d="m44 28h13v24h-13z" fill="#cb9e78"/><circle cx="32" cy="24" fill="#ba9b50" r="6"/><ellipse cx="30.5" cy="24" fill="#f8cf6a" rx="4.5" ry="5.803"/><path d="m4 52h16v6h-16z" fill="#4d3b2d"/><path d="m4 52h13v6h-13z" fill="#664f3c"/><path d="m44 52h16v6h-16z" fill="#4d3b2d"/><path d="m44 52h13v6h-13z" fill="#664f3c"/><path d="m50 32h6v6h-6z" fill="#64899b"/><path d="m50 32h3v6h-3z" fill="#85b6cf"/><path d="m50 42h6v6h-6z" fill="#64899b"/><path d="m50 42h3v6h-3z" fill="#85b6cf"/><path d="m8 42h6v6h-6z" fill="#64899b"/><path d="m8 42h3v6h-3z" fill="#85b6cf"/><path d="m8 32h6v6h-6z" fill="#64899b"/><path d="m8 32h3v6h-3z" fill="#85b6cf"/><path d="m24 38h16v20h-16z" fill="#cb9e78"/><path d="m28 58v-8c0-2.209 1.791-4 4-4 2.209 0 4 1.791 4 4v8z" fill="#98775a"/><path d="m28 58v-8c0-2.209 1.791-4 4-4 2.209 0 4 1.791 4 4v8z" fill="#664f3c"/><path d="m30.5 46.297c-1.465.594-2.5 2.025-2.5 3.703v8h5v-8c0-1.678-1.035-3.109-2.5-3.703z" fill="#98775a"/><path d="m53 16v-6h9l-3 3 3 3z" fill="#f8cf6a"/><path d="m11 16v-6h-9l3 3-3 3z" fill="#f8cf6a"/><g fill="#8b8a8b"><path d="m20 38h4v20h-4z"/><path d="m40 38h4v20h-4z"/><path d="m18 34h28v4h-28z"/></g><path d="m18 34h25v4h-25z" fill="#bab8b9"/><path d="m18 10h28v4h-28z" fill="#8b8a8b"/><path d="m18 10h25v4h-25z" fill="#bab8b9"/><path d="m2 58h60v4h-60z" fill="#8b8a8b"/><path d="m2 58h57v4h-57z" fill="#bab8b9"/><path d="m62 63h-60c-.552 0-1-.448-1-1v-4c0-.552.448-1 1-1h60c.552 0 1 .448 1 1v4c0 .552-.448 1-1 1zm-59-2h58v-2h-58z"/><path d="m43 14h2v20h-2z"/><path d="m19 14h2v20h-2z"/><path d="m5 58h-2v-30c0-.552.448-1 1-1h16v2h-15z"/><path d="m61 58h-2v-29h-15v-2h16c.552 0 1 .448 1 1z"/><path d="m14 39h-6c-.552 0-1-.448-1-1v-6c0-.552.448-1 1-1h6c.552 0 1 .448 1 1v6c0 .552-.448 1-1 1zm-5-2h4v-4h-4z"/><path d="m14 49h-6c-.552 0-1-.448-1-1v-6c0-.552.448-1 1-1h6c.552 0 1 .448 1 1v6c0 .552-.448 1-1 1zm-5-2h4v-4h-4z"/><path d="m56 39h-6c-.552 0-1-.448-1-1v-6c0-.552.448-1 1-1h6c.552 0 1 .448 1 1v6c0 .552-.448 1-1 1zm-5-2h4v-4h-4z"/><path d="m56 49h-6c-.552 0-1-.448-1-1v-6c0-.552.448-1 1-1h6c.552 0 1 .448 1 1v6c0 .552-.448 1-1 1zm-5-2h4v-4h-4z"/><path d="m4.707 28.707-1.414-1.414 6-6c.187-.188.442-.293.707-.293h10v2h-9.586z"/><path d="m59.293 28.707-5.707-5.707h-9.586v-2h10c.265 0 .52.105.707.293l6 6z"/><path d="m12 22h-2v-5h-8c-.404 0-.769-.244-.924-.617-.155-.374-.069-.804.217-1.09l2.293-2.293-2.293-2.293c-.286-.286-.372-.716-.217-1.09.155-.373.52-.617.924-.617h9c.552 0 1 .448 1 1zm-7.586-7h5.586v-4h-5.586l1.293 1.293c.391.391.391 1.023 0 1.414z"/><path d="m54 22h-2v-12c0-.552.448-1 1-1h9c.404 0 .769.244.924.617.155.374.069.804-.217 1.09l-2.293 2.293 2.293 2.293c.286.286.372.716.217 1.09-.155.373-.52.617-.924.617h-8zm0-7h5.586l-1.293-1.293c-.391-.391-.391-1.023 0-1.414l1.293-1.293h-5.586z"/><path d="m46 15h-28c-.552 0-1-.448-1-1v-4c0-.552.448-1 1-1h28c.552 0 1 .448 1 1v4c0 .552-.448 1-1 1zm-27-2h26v-2h-26z"/><path d="m43.293 10.707-7.707-7.707h-7.172l-7.707 7.707-1.414-1.414 8-8c.187-.188.442-.293.707-.293h8c.265 0 .52.105.707.293l8 8z"/><path d="m46 39h-28c-.552 0-1-.448-1-1v-4c0-.552.448-1 1-1h28c.552 0 1 .448 1 1v4c0 .552-.448 1-1 1zm-27-2h26v-2h-26z"/><path d="m19 38h2v20h-2z"/><path d="m43 38h2v20h-2z"/><path d="m4 51h16v2h-16z"/><path d="m44 51h16v2h-16z"/><path d="m32 31c-3.86 0-7-3.14-7-7s3.14-7 7-7 7 3.14 7 7-3.14 7-7 7zm0-12c-2.757 0-5 2.243-5 5s2.243 5 5 5 5-2.243 5-5-2.243-5-5-5z"/><path d="m33.293 26.707-2-2c-.188-.187-.293-.442-.293-.707v-3h2v2.586l1.707 1.707z"/><path d="m23 38h2v20h-2z"/><path d="m39 38h2v20h-2z"/><path d="m37 58h-2v-8c0-1.654-1.346-3-3-3s-3 1.346-3 3v8h-2v-8c0-2.757 2.243-5 5-5s5 2.243 5 5z"/></svg>