<svg id="_x33_0" enable-background="new 0 0 64 64" height="512" viewBox="0 0 64 64" width="512" xmlns="http://www.w3.org/2000/svg"><g><g><g><path d="m23 38 2 6h-2-3-1l2-6z" fill="#fcd770"/></g><g><path d="m24 35-1 3h-2l-1-3 2-1z" fill="#ffc729"/></g><g><path d="m26.21 36.11-1.21 7.89-2-6 1-3z" fill="#e6e9ed"/></g><g><path d="m21 38-2 6-1.21-7.89 2.21-1.11z" fill="#e6e9ed"/></g><g><path d="m17 31 5 3-2 1-2.21 1.11z" fill="#ccd1d9"/></g><g><path d="m22 34 5-3-.79 5.11-2.21-1.11z" fill="#ccd1d9"/></g><g><path d="m20 44v6h-4-6.45-.55c-1.38 0-2.63-.56-3.54-1.46-.9-.91-1.46-2.16-1.46-3.54 0-5.58 3.3-10.49 8.16-12.72l6.84 11.72z" fill="#ff826e"/></g><g><path d="m34 44.27c-.69.16-1.36.41-2 .73-1.32-.66-2.77-1-4.24-1h-2.76l6.84-11.71c4.58 2.09 7.76 6.55 8.12 11.71h-3.73c-.75 0-1.5.09-2.23.27z" fill="#ff826e"/></g><g><path d="m28.14 31.18c1.3.2 2.55.58 3.7 1.1v.01l-6.84 11.71 1.21-7.89.79-5.11z" fill="#fc6e51"/></g><g><path d="m17 31 .79 5.11 1.21 7.89-6.84-11.72c1.15-.52 2.39-.9 3.7-1.1z" fill="#fc6e51"/></g><g><path d="m13 16c-.92 0-1.74.41-2.29 1.06-.47-1.7-.71-3.46-.71-5.22 0-2.16.88-4.12 2.3-5.54s3.38-2.3 5.54-2.3h1.16c-.63.83-1 1.87-1 3s.37 2.17 1 3h-1c-2.21 0-4 1.79-4 4v2z" fill="#656d78"/></g><g><path d="m34 11.84c0 1.76-.24 3.52-.71 5.22-.55-.65-1.37-1.06-2.29-1.06h-1v-2c0-1.1-.9-2-2-2h-5c-1.38 0-2.63-.56-3.54-1.46-.17-.17-.32-.35-.46-.54-.63-.83-1-1.87-1-3s.37-2.17 1-3c.91-1.21 2.37-2 4-2h1.16c2.72 0 5.18 1.1 6.96 2.88s2.88 4.24 2.88 6.96z" fill="#656d78"/></g><g><path d="m16 50v12h-14c.2-2.57 1.03-4.96 2.34-7.01s3.1-3.77 5.21-4.99z" fill="#d3a06c"/></g><g><path d="m62 62h-14v-14c7.48.58 13.42 6.52 14 14z" fill="#d3a06c"/></g><g><path d="m32 59c1.31-.66 2.76-1 4.23-1h7.77v-12h3c.55 0 1 .45 1 1v1 14h-32v-12h4v8h7.76c1.47 0 2.92.34 4.24 1z" fill="#cf9e76"/></g><g><path d="m44 46v12h-7.77c-1.47 0-2.92.34-4.23 1v-14c.64-.32 1.31-.57 2-.73.73-.18 1.48-.27 2.23-.27h3.73 4.04z" fill="#e6e9ed"/></g><g><path d="m32 45v14c-1.32-.66-2.77-1-4.24-1h-7.76v-8h3c1.66 0 3-1.34 3-3 0-.83-.34-1.58-.88-2.12s-1.29-.88-2.12-.88h2 2.76c1.47 0 2.92.34 4.24 1z" fill="#e6e9ed"/></g><g><path d="m25.12 44.88c.54.54.88 1.29.88 2.12 0 1.66-1.34 3-3 3h-3v-6h3c.83 0 1.58.34 2.12.88z" fill="#f0d0b4"/></g><g><path d="m33.29 17.06c.44.52.71 1.2.71 1.94 0 .83-.34 1.58-.88 2.12s-1.29.88-2.12.88h-1v-6h1c.92 0 1.74.41 2.29 1.06z" fill="#f0d0b4"/></g><g><path d="m25.9 27.69 1.1 3.31-5 3-5-3 1.1-3.31c.6.2 1.24.31 1.9.31h4c.66 0 1.3-.11 1.9-.31z" fill="#f0d0b4"/></g><g><path d="m14 16v6h-1c-.83 0-1.58-.34-2.12-.88s-.88-1.29-.88-2.12c0-.74.27-1.42.71-1.94.55-.65 1.37-1.06 2.29-1.06z" fill="#f0d0b4"/></g><g><path d="m30 16v6c0 2.65-1.72 4.9-4.1 5.69-.6.2-1.24.31-1.9.31h-4c-.66 0-1.3-.11-1.9-.31-2.38-.79-4.1-3.04-4.1-5.69v-6-2c0-2.21 1.79-4 4-4h1c.14.19.29.37.46.54.91.9 2.16 1.46 3.54 1.46h5c1.1 0 2 .9 2 2z" fill="#f0d0b4"/></g><g><path d="m62 3v20c0 .55-.45 1-1 1h-22l-1.49 2.98c-.31.62-.95 1.02-1.66 1.02-1.02 0-1.85-.83-1.85-1.85v-7.15-7.16-8.84c0-.55.45-1 1-1h26c.55 0 1 .45 1 1z" fill="#e6e9ed"/></g><g><path d="m58 12-.81 3.24c-.11.45-.51.76-.97.76h-2.44c-.46 0-.86-.31-.97-.76l-.81-3.24z" fill="#aab2bd"/></g><g><path d="m44 12-.81 3.24c-.11.45-.51.76-.97.76h-2.44c-.46 0-.86-.31-.97-.76l-.81-3.24z" fill="#aab2bd"/></g></g><g><path d="m62.997 61.923c-.593-7.715-6.418-13.797-13.997-14.807v-.116c0-1.103-.897-2-2-2h-2v-2h-4.144c-.873-6.584-5.914-11.79-12.564-12.813l-.536-.083-.619-1.856c2.002-1.008 3.452-2.948 3.783-5.248h.08c.732 0 1.409-.212 2-.556v3.702c0 1.574 1.28 2.854 2.854 2.854 1.088 0 2.066-.604 2.553-1.578l1.211-2.422h21.382c1.103 0 2-.897 2-2v-20c0-1.103-.897-2-2-2h-26c-1.103 0-2 .897-2 2v2.587c-1.965-2.77-5.19-4.587-8.838-4.587h-1.162c-1.771 0-3.36.776-4.46 2h-.703c-4.872 0-8.837 3.965-8.837 8.838 0 1.693.22 3.376.635 5.017-.397.621-.635 1.354-.635 2.145 0 2.206 1.794 4 4 4h.08c.331 2.3 1.781 4.24 3.783 5.249l-.619 1.856-.536.083c-7.363 1.131-12.708 7.361-12.708 14.812 0 2.574 1.632 4.768 3.913 5.618-3.403 2.782-5.567 6.85-5.91 11.305l-.083 1.077h62.16zm-15.997-14.923v14h-30v-10h2v8h8.764c1.308 0 2.618.31 3.789.895l.447.223.447-.224c1.171-.584 2.481-.894 3.788-.894h8.765v-12zm-22.946-9 .53-1.59.531.266-.474 3.084zm-1.277-2.493-.498 1.493h-.558l-.498-1.493.777-.389zm-3.361.903.53 1.59-.586 1.759-.474-3.084zm2.305 2.59h.558l1.333 4h-3.225zm3.714-4.401-1.358-.679 1.611-.967zm-6.87 0-.253-1.646 1.611.967zm2.435 10.401h2c1.103 0 2 .897 2 2s-.897 2-2 2h-2zm8 6v-2h-2.556c.344-.591.556-1.268.556-2s-.212-1.409-.556-2h1.32c1.107 0 2.211.234 3.236.658v11.858c-1.044-.339-2.14-.516-3.236-.516h-6.764v-6zm14 6h-6.765c-1.095 0-2.191.177-3.235.515v-11.857c1.024-.424 2.127-.658 3.234-.658h6.766zm-4.155-14h-2.611c-.412 0-.824.031-1.234.081v-4.081h-2v4.515c-.339.11-.674.237-1 .381-1.33-.587-2.784-.896-4.236-.896h-1.023l5.491-9.413c3.507 1.896 5.988 5.334 6.613 9.413zm-8.455-10.225-3.601 6.174 1.047-6.808.152.023c.833.128 1.633.339 2.402.611zm.61-11.775v-4c1.103 0 2 .897 2 2s-.897 2-2 2zm4-18h26v20h-22.618l-1.764 3.527c-.145.292-.438.473-.764.473-.471 0-.854-.384-.854-.854zm-12 0h1.162c4.873 0 8.838 3.965 8.838 8.838 0 1.186-.12 2.367-.346 3.53-.506-.231-1.063-.368-1.654-.368v-1c0-1.654-1.346-3-3-3h-5c-2.206 0-4-1.794-4-4s1.794-4 4-4zm-12 16c0-1.103.897-2 2-2v4c-1.103 0-2-.897-2-2zm2-5v1c-.591 0-1.148.137-1.654.368-.226-1.163-.346-2.345-.346-3.53 0-3.603 2.802-6.556 6.341-6.813-.217.62-.341 1.282-.341 1.975 0 .716.126 1.403.357 2.041-2.454.316-4.357 2.42-4.357 4.959zm2 8v-8c0-1.654 1.346-3 3-3h.532c1.099 1.227 2.695 2 4.468 2h5c.551 0 1 .448 1 1v8c0 2.757-2.243 5-5 5h-4c-2.757 0-5-2.243-5-5zm5 7h4c.424 0 .837-.044 1.24-.117l.557 1.672-3.797 2.279-3.797-2.278.557-1.672c.403.072.816.116 1.24.116zm-3.987 3.164.151-.023 1.047 6.808-3.603-6.177c.768-.272 1.57-.48 2.405-.608zm-11.013 12.836c0-4.91 2.681-9.201 6.77-11.41l5.489 9.41h-6.259v-4h-2v4h-2v2h12v4h-10c-2.206 0-4-1.794-4-4zm4.842 6h5.158v10h-11.879c.64-4.151 3.097-7.815 6.721-10zm39.158 10v-11.874c6.16.937 10.944 5.713 11.88 11.874z"/><path d="m23 53h6v2h-6z"/><path d="m37.84 15.484c.223.893 1.021 1.516 1.941 1.516h2.438c.919 0 1.717-.623 1.94-1.516l.881-3.524-1.653-4.96h3.613v12h-4v2h10v-2h-4v-12h3.613l-1.653 4.96.881 3.524c.222.893 1.02 1.516 1.94 1.516h2.438c.919 0 1.717-.623 1.94-1.516l.881-3.524-1.653-4.96h1.613v-2h-22v2h1.613l-1.653 4.96zm1.941-.484-.5-2h3.439l-.5 2zm14 0-.5-2h3.439l-.5 2zm2.832-4h-3.225l1.334-4h.558zm-15.334-4 1.334 4h-3.225l1.334-4z"/><path d="m27 21h-2c0 1.103-.897 2-2 2h-4v2h4c2.206 0 4-1.794 4-4z"/><circle cx="18" cy="16" r="1"/><circle cx="26" cy="16" r="1"/></g></g></svg>