<svg id="Capa_1" enable-background="new 0 0 512 512" height="512" viewBox="0 0 512 512" width="512" xmlns="http://www.w3.org/2000/svg"><g><path d="m437.02 74.98c-48.353-48.351-112.64-74.98-181.02-74.98s-132.667 26.629-181.02 74.98c-48.351 48.353-74.98 112.64-74.98 181.02s26.629 132.667 74.98 181.02c48.353 48.351 112.64 74.98 181.02 74.98s132.667-26.629 181.02-74.98c48.351-48.353 74.98-112.64 74.98-181.02s-26.629-132.667-74.98-181.02z" fill="#ffe470"/><path d="m256.681.008v511.983c68.125-.176 132.148-26.781 180.339-74.972 48.351-48.352 74.98-112.639 74.98-181.019s-26.629-132.667-74.98-181.02c-48.192-48.19-112.214-74.795-180.339-74.972z" fill="#fabe2c"/><g><g><path d="m365.993 252.727h-62.505l-15 30v101.508c0 25.503 20.749 46.252 46.252 46.252s46.252-20.749 46.252-46.252v-116.508c.001-8.285-6.715-15-14.999-15z" fill="#29376d"/><path d="m303.389 81.514c-8.244.009-14.9 6.756-14.9 15v186.213h90.85c8.284 0 15-6.716 15-15v-95.363c-.001-50.129-40.81-90.904-90.95-90.85z" fill="#d5e8fe"/></g><path d="m241.289 101.514c-8.284 0-15 6.716-15 15v7.302c0 18.508-11.949 34.267-28.533 39.998v-47.3c0-8.284-6.716-15-15-15s-15 6.716-15 15v46.379c-15.305-6.377-26.094-21.488-26.094-39.077v-7.302c0-8.284-6.716-15-15-15s-15 6.716-15 15v7.302c0 34.297 24.007 63.073 56.094 70.458v146.568c0 8.284 6.716 15 15 15s15-6.716 15-15v-146.045c33.303-6.454 58.533-35.82 58.533-70.981v-7.302c0-8.285-6.716-15-15-15z" fill="#edf5ff"/><path d="m214.009 252.727h-62.505c-8.284 0-15 6.716-15 15v116.508c0 25.503 20.749 46.252 46.252 46.252s46.252-20.749 46.252-46.252v-116.508c.001-8.285-6.715-15-14.999-15z" fill="#47568c"/></g></g></svg>