<svg height="511pt" viewBox="-20 0 511 511.99944" width="511pt" xmlns="http://www.w3.org/2000/svg"><path d="m217.480469 346.230469c-100.667969 178.121093-1.921875 3.398437-86.738281 153.445312-3.832032 6.777344-13.765626 6.253907-16.871094-.882812l-24.445313-56.222657c-1.679687-3.859374-5.722656-6.140624-9.894531-5.589843l-60.777344 8.035156c-7.722656 1.023437-13.292968-7.21875-9.460937-13.996094 56.300781-99.59375 28.125-49.75 86.738281-153.4375l60.722656 34.328125zm0 0" fill="#169b62"/><path d="m453.410156 445.015625-60.773437-8.035156c-4.175781-.550781-8.21875 1.730469-9.894531 5.589843l-24.445313 56.222657c-3.109375 7.136719-13.042969 7.660156-16.875.882812l-44.785156-79.214843-13.574219-24.023438-28.378906-50.207031 60.726562-34.320313 60.722656-34.328125c3.960938 7.003907 83.675782 148.019531 86.738282 153.4375 3.832031 6.777344-1.738282 15.019531-9.460938 13.996094zm0 0" fill="#169b62"/><path d="m156.753906 311.910156 60.726563 34.320313c-1.15625 2.046875 3.636719-6.4375-41.992188 74.300781-34.199219 1.304688-67.914062-25.753906-65.84375-66.257812.707031-13.179688-10.152343-24.554688-23.851562-23.847657-6.484375.308594-12.738281-.324219-18.628907-1.773437 39.695313-70.222656 25.835938-45.703125 28.867188-51.070313zm0 0" fill="#127d4f"/><path d="m405.011719 328.675781c-5.929688 1.457031-12.195313 2.078125-18.640625 1.75-13.34375-.707031-24.535156 10.304688-23.851563 23.847657.863281 17.589843-5.148437 34.058593-16.933593 46.4375-12.941407 13.59375-30.992188 20.535156-48.949219 19.75l-13.574219-24.023438-28.378906-50.207031 60.726562-34.320313 60.722656-34.328125c3.023438 5.351563-10.8125-19.128906 28.878907 51.09375zm0 0" fill="#127d4f"/><path d="m387.398438 310.335938c-25.117188-1.332032-46.261719 19.441406-44.964844 44.964843 1.988281 40.5-47.683594 60.652344-74.558594 30.882813-8.503906-9.417969-20.148438-14.132813-31.792969-14.132813-11.640625 0-23.289062 4.714844-31.792969 14.132813-27 29.910156-76.617187 9.367187-74.558593-30.882813 1.339843-25.113281-19.441407-46.261719-44.960938-44.964843-40.503906 1.984374-60.65625-47.683594-30.886719-74.558594 18.847657-17.015625 18.839844-46.578125 0-63.585938-29.917968-27.019531-9.351562-76.621094 30.886719-74.558594 25.113281 1.335938 46.257813-19.441406 44.960938-44.960937-1.980469-40.402344 47.613281-60.726563 74.558593-30.886719 17.015626 18.847656 46.578126 18.839844 63.585938 0 27.023438-29.917968 76.625-9.355468 74.558594 30.886719-1.332032 25.113281 19.441406 46.257813 44.964844 44.960937 40.5-1.984374 60.652343 47.6875 30.882812 74.558594-18.847656 17.015625-18.835938 46.578125 0 63.585938 29.921875 27.019531 9.355469 76.625-30.882812 74.558594zm0 0" fill="#1ed688"/><path d="m387.398438 310.335938c-25.117188-1.332032-46.261719 19.441406-44.964844 44.964843 1.988281 40.5-47.683594 60.652344-74.558594 30.882813-8.503906-9.417969-20.148438-14.132813-31.792969-14.132813-11.640625 0-23.289062 4.714844-31.792969 14.132813-4.65625 5.160156-9.984374 8.816406-15.605468 11.125-15.828125-6.273438-28.058594-21.609375-27.015625-42.007813 1.335937-25.117187-19.441407-46.261719-44.960938-44.964843-40.503906 1.984374-60.65625-47.683594-30.886719-74.558594 9.417969-8.503906 14.125-20.152344 14.125-31.792969s-4.707031-23.289063-14.125-31.792969c-29.917968-27.019531-9.355468-76.621094 30.886719-74.558594 25.113281 1.335938 46.257813-19.441406 44.960938-44.960937-.808594-14.710937 6.285156-32.167969 13.769531-45.042969 10.316406.621094 20.628906 5.046875 28.851562 14.15625 17.015626 18.847656 46.578126 18.839844 63.585938 0 27.023438-29.917968 76.625-9.355468 74.558594 30.886719-1.332032 25.113281 19.441406 46.257813 44.964844 44.960937 40.5-1.984374 60.652343 47.6875 30.882812 74.558594-18.847656 17.015625-18.835938 46.578125 0 63.585938 29.921875 27.019531 9.355469 76.625-30.882812 74.558594zm0 0" fill="#35e298"/><path d="m373.613281 203.988281c0 68.519531-50.121093 125.347657-115.699219 135.800781-7.109374 1.140626-14.402343 1.730469-21.832031 1.730469-75.949219 0-137.53125-61.582031-137.53125-137.53125 0-75.953125 61.582031-137.535156 137.535157-137.535156 7.425781 0 14.722656.589844 21.832031 1.730469 65.574219 10.453125 115.695312 67.28125 115.695312 135.804687zm0 0" fill="#169b62"/><path d="m373.613281 203.988281c0 68.519531-50.121093 125.347657-115.699219 135.800781-65.582031-10.453124-115.699218-67.277343-115.699218-135.800781 0-68.523437 50.117187-125.351562 115.703125-135.804687 65.574219 10.453125 115.695312 67.28125 115.695312 135.804687zm0 0" fill="#1ab975"/><path d="m327.820312 204.324219v49.433593c0 21.253907-17.390624 38.644532-38.644531 38.644532h-76.164062c-10.007813 0-18.195313-8.1875-18.195313-18.195313v-83.777343c0-10.011719 8.1875-18.199219 18.195313-18.199219h16.589843c1.601563 0 3.121094-.714844 4.140626-1.957031l39.039062-47.125c6.703125-8.140626 18.613281-10.09375 27.253906-4.054688 9.667969 6.753906 11.378906 20.289062 4.023438 29.222656l-12.523438 15.199219c-2.808594 3.511719-.308594 8.714844 4.191406 8.714844 17.722657 0 32.09375 14.371093 32.09375 32.09375zm0 0" fill="#ffd993"/><path d="m144.347656 276.832031v-91.542969c0-6.304687 5.113282-11.417968 11.417969-11.417968h25.539063c7.433593 0 13.511718 6.082031 13.511718 13.511718v87.359376c0 7.429687-6.082031 13.507812-13.511718 13.507812h-25.539063c-6.304687.003906-11.417969-5.109375-11.417969-11.417969zm0 0" fill="#ffa90b"/><path d="m101.050781 231.273438c-4.035156 1.042968-6.457031 5.160156-5.410156 9.191406 16.5625 63.9375 74.316406 108.589844 140.441406 108.589844 79.996094 0 145.074219-65.078126 145.074219-145.070313s-65.082031-145.070313-145.074219-145.070313c-81.542969 0-147.792969 67.703126-144.984375 150.132813.144532 4.164063 3.648438 7.433594 7.796875 7.28125 4.160157-.144531 7.421875-3.632813 7.277344-7.796875-2.535156-73.875 56.863281-134.535156 129.910156-134.535156 71.675781 0 129.988281 58.3125 129.988281 129.988281s-58.3125 129.988281-129.988281 129.988281c-59.253906 0-111.003906-40.007812-125.84375-97.289062-1.042969-4.03125-5.160156-6.453125-9.1875-5.410156zm0 0"/><path d="m304.644531 112.5c-11.929687-8.339844-28.65625-5.90625-38.054687 5.519531l-38.246094 46.167969h-15.332031c-6.800781 0-13.007813 2.601562-17.675781 6.863281-3.773438-3.246093-8.671876-5.222656-14.03125-5.222656h-25.539063c-10.730469 0-19.460937 8.730469-19.460937 19.460937v91.542969c0 10.730469 8.730468 19.464844 19.460937 19.464844h25.539063c4.714843 0 9.066406-1.539063 12.617187-4.117187 4.789063 5.082031 11.574219 8.265624 19.089844 8.265624h76.160156c25.746094 0 46.691406-20.945312 46.691406-46.691406v-49.429687c0-20.308594-15.15625-37.140625-34.753906-39.78125l9.160156-11.113281c10.371094-12.597657 7.824219-31.53125-5.625-40.929688zm-117.871093 162.242188c0 2.960937-2.503907 5.464843-5.46875 5.464843h-25.539063c-1.859375 0-3.375-1.511719-3.375-3.375v-91.542969c0-1.859374 1.515625-3.375 3.375-3.375h25.539063c2.964843 0 5.46875 2.503907 5.46875 5.46875zm133-70.417969v49.433593c0 16.871094-13.726563 30.601563-30.597657 30.601563h-76.164062c-5.597657 0-10.148438-4.554687-10.148438-10.152344v-83.777343c0-5.597657 4.550781-10.152344 10.148438-10.152344h16.589843c4.023438 0 7.796876-1.78125 10.335938-4.871094l39.054688-47.144531c6.8125-8.277344 20.011718-4.910157 21.460937 5.660156 1.046875 7.648437-3.710937 10.03125-15.199219 24.566406-7.011718 8.769531-.785156 21.789063 10.472656 21.789063 13.257813 0 24.046876 10.785156 24.046876 24.046875zm0 0"/><path d="m406.109375 315.289062c34.5-11.632812 46.917969-58.320312 17.226563-85.105468-15.589844-14.105469-15.414063-38.464844 0-52.390625 10.789062-9.734375 16.722656-22.875 16.722656-37.003907 0-27.949218-22.667969-52.304687-53.042969-50.6875-14.589844.742188-28.074219-7.582031-34.019531-20.816406-1.707032-3.800781-6.171875-5.488281-9.972656-3.789062-3.792969 1.707031-5.492188 6.171875-3.78125 9.972656 8.476562 18.875 27.753906 30.78125 48.535156 29.695312 33.09375-1.949218 50.1875 39.125 25.453125 61.425782-22.125 20-22.140625 54.796875 0 74.785156 21.886719 19.757812 10.996093 54.257812-14.722657 60.472656-7.089843 1.734375-10.796874.589844-16.75 1.015625-26.644531 1.757813-48.183593 24.515625-46.851562 52.820313 1.5 33.972656-39.503906 49.695312-61.4375 25.449218-19.921875-22.039062-54.667969-22.242187-74.769531 0-22.046875 24.371094-62.9375 8.429688-61.441407-25.449218 1.328126-28.855469-19.625-52.820313-54.902343-52.820313-32.167969 0-47.40625-39.859375-23.417969-61.488281 22.136719-19.988281 22.128906-54.785156 0-74.785156-24.75-22.3125-7.679688-63.347656 25.449219-61.425782 28.941406 1.46875 52.941406-21.648437 52.941406-50.269531 0-1.851562-.117187-2.921875-.117187-4.632812 0-22.011719 18.136718-35.175781 35.683593-35.175781 6.929688 0 17.035157 2.042968 25.804688 11.757812 19.984375 22.132812 54.792969 22.125 74.769531 0 20.488281-22.695312 56.320312-10.085938 60.976562 17.214844.695313 4.101562 4.59375 6.855468 8.699219 6.160156 4.101563-.703125 6.867188-4.59375 6.164063-8.695312-6.878906-40.421876-58.464844-56.429688-87.03125-24.796876-13.996094 15.515626-38.394532 15.511719-52.386719 0-20.074219-22.230468-52.183594-21.34375-71.988281-2.976562-11.242188 10.429688-16.496094 24.765625-15.707032 39.304688 1.019532 21.011718-16.179687 38.066406-37.03125 37.046874-14.949218-.816406-29.148437 4.746094-39.308593 15.695313-18.457031 19.902344-19.164063 52.023437 2.976562 71.996094 15.425781 13.933593 15.582031 38.289062 0 52.390625-10.789062 9.730468-16.722656 22.863281-16.722656 36.992187 0 21.039063 13.222656 41.125 33.949219 48.113281l-63.320313 112.019532c-6.90625 12.179687 3.121094 27.035156 17.003907 25.1875 61.789062-7.605469 61.648437-9.417969 62.765624-6.917969l24.445313 56.21875c5.628906 12.898437 23.507813 13.71875 30.355469 1.589844l56.621094-100.171875c5.914062-2.804688 11.324218-6.847656 15.960937-11.976563 13.996094-15.515625 38.394531-15.511719 52.386719 0 4.636718 5.128907 10.035156 9.160157 15.949218 11.976563l27.128907 47.996094c2.050781 3.617187 6.65625 4.894531 10.277343 2.84375 3.628907-2.042969 4.90625-6.644532 2.855469-10.277344l-20.253906-35.835938c25.023437 1.472656 51.808594-19.464844 51.808594-50.226562 0-2.0625-.121094-3.230469-.121094-4.644532 0-19.4375 15.816406-35.246093 35.242187-35.246093 1.039063 0 4.199219.167969 5.117188.109375 70.222656 124.390625 66.285156 116.839844 66.285156 117.71875 0 .847656-.761718 2.074218-2.160156 1.890625-63.464844-8.34375-60.851562-8.183594-63.007812-8.183594-6.765626 0-12.871094 4-15.566407 10.207031-25.710937 57.289063-23.601562 57.355469-26.203125 57.355469-1.964844 0-.589844.246094-16.289062-26.878906-2.050782-3.628907-6.65625-4.90625-10.277344-2.855469-3.628906 2.050781-4.90625 6.65625-2.855469 10.277344l14.652344 25.921875c6.945313 12.273437 24.8125 11.148437 30.34375-1.589844 25.257813-56.582031 23.710937-57.710937 26.449219-57.335937 63.871094 8.390624 60.964844 8.1875 63.054687 8.1875 9.34375 0 16.945313-7.625 16.945313-16.996094-.003906-7.832032 1.046875-1.015625-65.542969-120.363282zm-283.683594 181.632813c-2.328125-.132813-.226562.65625-26.09375-57.355469-2.867187-6.605468-9.882812-11.027344-17.796875-10.066406-62.355468 7.679688-61.246094 9.242188-62.59375 7.21875-1.398437-2.050781-2.640625 3.734375 65.941406-118.785156 29.523438 1.847656 41.285157 17.257812 40.3125 36.976562-.789062 14.503906 4.4375 28.859375 15.707032 39.304688 10.449218 9.699218 25.023437 14.375 36.027344 13.726562-52.539063 91.757813-49.03125 89.070313-51.503907 88.980469zm0 0"/></svg>