<svg id="Capa_1" enable-background="new 0 0 512 512" height="512" viewBox="0 0 512 512" width="512" xmlns="http://www.w3.org/2000/svg"><g><path d="m106 361c57.897 0 105-47.103 105-105v-4.155l-80.387-133.978c21.998-5.871 35.867-18.678 42.846-26.867h40.121c4.527 12.764 14.656 22.893 27.42 27.42v303.58h-120v60h-30v30h330v-30h-30v-60h-120v-303.58c12.764-4.527 22.893-14.656 27.42-27.42h40.121c6.979 8.189 20.848 20.996 42.846 26.867l-80.387 133.978v4.155c0 57.897 47.103 105 105 105 58.449 0 106-47.103 106-105v-4.194l-81.279-133.977c32.752-8.79 47.449-32.941 48.188-34.188l-25.816-15.282.082-.135c-.58.93-14.539 22.776-47.175 22.776-29.051 0-41.075-14.155-51.234-30h-56.346c-4.527-12.764-14.656-22.893-27.42-27.42v-33.58h-30v33.58c-12.764 4.527-22.893 14.656-27.42 27.42h-56.186c-10.719 16.583-23.164 30-51.394 30-37.212 0-48.469-25.372-55.334-35.087l-25.007 16.572c5.908 8.405 18.934 35.471 55.627 45.333l-81.286 133.988v4.194c0 57.897 47.551 105 106 105zm300-30c-36.219 0-66.521-25.808-73.49-60.01h147.96c-7.061 34.201-37.768 60.01-74.47 60.01zm.071-195.964 64.284 105.964h-127.862zm-45.071 316.964v30h-210v-30zm-105-391c8.271 0 15 6.729 15 15s-6.729 15-15 15-15-6.729-15-15 6.729-15 15-15zm-150.071 74.036 63.578 105.964h-127.862zm73.561 135.954c-6.969 34.202-37.271 60.01-73.49 60.01-36.702 0-67.409-25.809-74.47-60.01z"/></g></svg>