<svg id="Capa_1" enable-background="new 0 0 512 512" height="512" viewBox="0 0 512 512" width="512" xmlns="http://www.w3.org/2000/svg"><g><path d="m164.037 170.39-39.28 38.88-14.48-16.21c-5.52-6.18-15-6.72-21.18-1.2-6.18 5.51-6.71 15-1.2 21.18l25 28c5.71 6.39 15.64 6.71 21.75.66l50.5-50c5.88-5.82 5.93-15.32.1-21.21s-15.32-5.93-21.21-.1z"/><path d="m228.087 229.36h85c8.29 0 15-6.71 15-15 0-8.28-6.71-15-15-15h-85c-8.28 0-15 6.72-15 15 0 8.29 6.72 15 15 15z"/><path d="m164.037 264.98-39.28 38.89-14.48-16.22c-5.52-6.18-15-6.72-21.18-1.2s-6.71 15-1.2 21.18l25 28c5.71 6.4 15.64 6.72 21.75.67l50.5-50c5.88-5.83 5.93-15.33.1-21.21-5.83-5.89-15.32-5.94-21.21-.11z"/><path d="m164.037 359.58-39.28 38.88-14.48-16.21c-5.52-6.18-15-6.72-21.18-1.2-6.18 5.51-6.71 15-1.2 21.18l25 28c5.71 6.39 15.64 6.71 21.75.66l50.5-50c5.88-5.82 5.93-15.32.1-21.21s-15.32-5.93-21.21-.1z"/><path d="m228.51 323.96h41.676c8.284 0 15-6.716 15-15s-6.716-15-15-15h-42.099c-8.515 0-15.38 7.097-14.984 15.71.373 8.074 7.324 14.29 15.407 14.29z"/><path d="m469.625 335.313c16.201-16.765 21.234-41.776 14.943-74.378-1.161-6.018-5.868-10.725-11.886-11.886-27.056-5.223-48.887-2.646-65.114 7.641v-150.41c0-19.3-15.71-35-35-35h-54.04c-6.2-17.55-22.95-30.16-42.59-30.16h-21.91c-3.561-23.25-23.701-41.12-47.941-41.12-24.23 0-44.37 17.87-47.94 41.12h-21.9c-19.64 0-36.4 12.61-42.59 30.16h-54.04c-19.3 0-35 15.7-35 35v370.72c0 19.3 15.7 35 35 35h401.396c5.09 0 21.971-4.027 34.064-18.979 52.709-65.152 33.662-131.942-5.452-157.708zm-12.947-58.374c1.851 17.359-1.157 30.084-8.982 37.904-9.62 9.614-26.548 11.739-40.055 11.137-1.73-38.496 15.711-52.595 49.037-49.041zm-322.661-205.659c1.65-.23-1.11-.16 38.57-.16 8.29 0 15-6.71 15-15v-7.62c0-10.2 8.3-18.5 18.5-18.5s18.5 8.3 18.5 18.5v7.62c0 8.29 6.72 15 15 15 39.67 0 36.95-.07 38.57.16 7.3 1.08 12.93 7.4 12.93 15s-5.63 13.92-12.93 15c-1.76.24-142.22.26-144.14 0-7.3-1.08-12.93-7.4-12.93-15s5.63-13.92 12.93-15zm94.07 347.27h49.92c1.633 21.159 9.68 42.844 23.813 63.45h-262.203c-2.76 0-5-2.24-5-5v-370.72c0-2.76 2.24-5 5-5h54.04c6.19 17.55 22.95 30.16 42.59 30.16h139.69c19.64 0 36.39-12.61 42.59-30.16h54.04c2.75 0 5 2.24 5 5v224.405c-10.673-5.302-22.311-7.406-34.147-5.908-29.215 3.697-55.206 28.395-63.276 63.773h-52.057c-8.28 0-15 6.72-15 15 0 8.29 6.72 15 15 15zm223.667 55.604c-3.11 3.845-7.553 6.659-12.333 7.846-8.957 0-82.923 0-92.343 0-5.5-1.001-10.458-3.828-13.708-7.847-49.109-60.704-17.981-115.589 13.817-119.614 12.298-1.554 23.809 4.437 33.292 17.33 5.991 8.146 18.18 8.141 24.168 0 9.482-12.894 20.991-18.885 33.292-17.33 31.786 4.024 62.936 58.895 13.815 119.615z"/></g></svg>