<svg id="Layer_3" height="512" viewBox="0 0 512 512" width="512" xmlns="http://www.w3.org/2000/svg" data-name="Layer 3"><path d="m156 155.818a27.831 27.831 0 0 0 12.155-2.779c7.112 8.123 18.908 18.779 31.845 18.779v-16c-6.32 0-14.334-7.109-20-13.587a27.993 27.993 0 1 0 -24 13.587z"/><path d="m136 243.818h16v16h-16z"/><path d="m208 99.818h16v16h-16z"/><path d="m128 187.818h16v16h-16z"/><path d="m384 139.818h16v16h-16z"/><path d="m368 43.818h16v16h-16z"/><path d="m184 347.818h16v16h-16z"/><path d="m408 291.818h16v16h-16z"/><path d="m352 339.818h16v16h-16z"/><path d="m504 251.818h-37.28c-7.191-4.787-20.655-8.968-31.855-11.868a27.993 27.993 0 1 0 -36.48 8.322 22.151 22.151 0 0 1 -7.541 7.595 28.066 28.066 0 0 0 -23.492-19.841 27.994 27.994 0 1 0 -43.352-5.795c-5.671 6.477-13.685 13.587-20 13.587v16c12.937 0 24.732-10.656 31.845-18.779a27.778 27.778 0 0 0 8.8 2.571 27.918 27.918 0 0 0 -8.607 18.711c-6.427 2.121-19.829 5.5-40.041 5.5v16c20.982 0 35.627-3.327 43.823-5.9a28.173 28.173 0 0 0 4.608 5.9 28.153 28.153 0 0 0 -4.972 6.535c-7.973-1.752-21.34-3.586-33.213.016a55.928 55.928 0 0 0 -40.394-4.736l20.676-29.19a7.973 7.973 0 0 0 -.511-9.882l11.923-2.981a8 8 0 0 0 6-8.753l-1.362-10.9.208.13 35.633-57.014 37.584 25.054v3.719h16v-8a8 8 0 0 0 -3.562-6.656l-48-32a8 8 0 0 0 -11.222 2.416l-29.736 47.578-3.541-28.33a8 8 0 0 0 -9.07-6.927l-56 8a8 8 0 0 0 -6.76 9.235l4.464 26.785-16.135-10.757a8 8 0 0 0 -11.094 2.219l-5.68 8.521q-11.919 1.769-23.153 4.192c-81.863 7.305-117.956 31.926-127.511 39.723h-37a8 8 0 0 0 -8 8v88a8 8 0 0 0 8 8h32.65c1.624 12.221 7.3 36.63 27.141 61.045 15.949 19.629 37.792 35.226 64.923 46.356 33.316 13.668 74.8 20.6 123.286 20.6 48.466 0 90.345-6.921 124.471-20.572 27.727-11.09 50.453-26.621 67.55-46.16 21.543-24.621 28.625-49.256 30.909-61.268h25.07a8 8 0 0 0 8-8v-88a8 8 0 0 0 -8-8.001zm-408 128 7.56-2.618c.019.052 1.934 5.253 8.147 12.121 5.8 6.408 16.622 15.612 35.264 23.069l-5.941 14.855c-42.951-17.18-52.244-43.774-52.619-44.9zm-56-104v16h-24v-16zm0 32v16h-24v-16zm432 16v-16h24v16zm0-32v-16h24v16zm-60-80a12 12 0 1 1 -12 12 12.013 12.013 0 0 1 12-12zm-64-8a12 12 0 1 1 -12 12 12.013 12.013 0 0 1 12-12zm4 60a12 12 0 1 1 12 12 12.013 12.013 0 0 1 -12-12zm24 40a12 12 0 1 1 -12-12 12.013 12.013 0 0 1 12 12zm-149.659 20h-101.129a8 8 0 0 1 -7.692-10.2l1.658-5.8h24.822v-16h-20.251l.628-2.2a8.033 8.033 0 0 1 7.691-5.8h75.932v-.357l12.187 8.357h-52.187v16h66.083a55.8 55.8 0 0 0 -7.742 16zm39.4-21.362-8.892 17.784 14.311 7.155 8.84-17.688 8.845 17.689 14.311-7.155-8.892-17.784a40.059 40.059 0 0 1 25.736 37.361c0 4.15-.632 5.756-.862 6.2-2.013.564-8.634-1.074-13.059-2.169-7.261-1.8-16.3-4.034-26.079-4.034s-18.818 2.237-26.079 4.034c-4.424 1.1-11.043 2.731-13.059 2.169-.23-.448-.862-2.054-.862-6.2a40.059 40.059 0 0 1 25.737-37.362zm-24.5-115.877 39.834-5.691 6.111 48.887-18.781 4.7-21.58-14.387zm-31.019 28.333 58.5 39-24.688 34.855-56.99-39.079zm-38.743 43.5 13.712 9.4h-53.123a24.1 24.1 0 0 0 -23.076 17.407l-6.857 24a24 24 0 0 0 23.077 30.593h98.788c0 5.745.723 13.947 6.968 18.835 7.15 5.595 16.693 3.232 26.8.73 6.751-1.671 14.4-3.565 22.234-3.565s15.483 1.894 22.234 3.565c5.54 1.371 10.91 2.7 15.811 2.7a17.139 17.139 0 0 0 10.987-3.431c6.245-4.888 6.968-13.09 6.968-18.835a55.739 55.739 0 0 0 -12.733-35.512 72.03 72.03 0 0 1 12.825 1.668 28 28 0 1 0 47.478-22.156 28.081 28.081 0 0 0 6.458-9.7c11.437-4.529 17.853-10.871 21.431-16.59 18.473 12.799 28.539 27.557 28.539 42.154 0 43.442-84.262 80.143-184 80.143s-184-36.7-184-80.143c0-11.393 6.011-28.642 34.646-46.113 17.844-10.888 41.551-19.719 68.388-25.628.545-.047 1.081-.1 1.63-.143l-.018-.209q3.381-.726 6.824-1.391l-14.127 21.19a8 8 0 0 0 2.133 11.035z"/><path d="m310.535 132.256a55.827 55.827 0 0 0 39.6-16.376c4.062-4.062 9.351-10.373 8.391-18.246-1.1-9.01-9.519-14.089-18.433-19.465a137.535 137.535 0 0 1 -12.163-7.969l15.133-15.133-11.315-11.312-15.132 15.133a137.634 137.634 0 0 1 -7.967-12.163c-5.377-8.914-10.455-17.333-19.465-18.433-7.883-.955-14.184 4.33-18.246 8.392a55.974 55.974 0 0 0 39.6 95.572zm-30.217-58.5 15.18 5.06-6.254 18.762 18.756-6.258 5.061 15.179-18.888 6.3a40.011 40.011 0 0 1 -20.146-20.181z"/><path d="m248 131.818h16v16h-16z"/></svg>